<svg width="348" height="45" viewBox="0 0 348 45" fill="none" xmlns="http://www.w3.org/2000/svg">
<path d="M0 29V5.4H1.2V29H0ZM2.4 29V5.4H4.8V29H2.4ZM8.4 29V5.4H9.6V29H8.4ZM3.68 32.48H5.84C6.61333 32.48 7.21333 32.5867 7.64 32.8C8.09333 33.0133 8.48 33.3333 8.8 33.76C9.41333 34.56 9.72 35.6933 9.72 37.16C9.66667 38.68 9.32 39.8267 8.68 40.6C8.04 41.4 7.04 41.7867 5.68 41.76H3.68V32.48ZM5.6 40.96C7.65333 40.96 8.68 39.72 8.68 37.24C8.68 35.9867 8.45333 35.0267 8 34.36C7.52 33.6933 6.77333 33.36 5.76 33.36H4.68V40.96H5.6ZM13.2031 29V5.4H14.4031V29H13.2031ZM16.8031 29V5.4H18.0031V29H16.8031ZM19.2031 29V5.4H21.6031V29H19.2031ZM19.7231 34.8C20.6831 34.8 21.4165 35.0533 21.9231 35.56C22.4298 36.0667 22.6831 36.9333 22.6831 38.16V41.76H21.5231V40.72C21.1231 41.52 20.3498 41.92 19.2031 41.92C18.4565 41.92 17.8698 41.7467 17.4431 41.4C17.0165 41.0533 16.8031 40.6 16.8031 40.04C16.8031 39.56 16.9631 39.1467 17.2831 38.8C17.5765 38.4533 17.9898 38.1733 18.5231 37.96C19.0298 37.7733 19.6031 37.68 20.2431 37.68C20.8031 37.68 21.3098 37.7067 21.7631 37.76C21.7098 37.0133 21.5098 36.48 21.1631 36.16C20.8165 35.84 20.3098 35.68 19.6431 35.68C19.2965 35.68 18.9765 35.7467 18.6831 35.88C18.3631 36.0133 18.0698 36.2 17.8031 36.44L17.2831 35.76C17.9231 35.12 18.7365 34.8 19.7231 34.8ZM19.3231 41.12C20.0698 41.12 20.6565 40.8933 21.0831 40.44C21.5098 40.0133 21.7365 39.4 21.7631 38.6C21.3098 38.52 20.8298 38.48 20.3231 38.48C19.5765 38.48 18.9765 38.6133 18.5231 38.88C18.0965 39.12 17.8831 39.4933 17.8831 40C17.8831 40.7467 18.3631 41.12 19.3231 41.12ZM26.4062 29V5.4H27.6063V29H26.4062ZM30.0063 29V5.4H31.2063V29H30.0063ZM33.6063 29V5.4H38.4063V29H33.6063ZM34.2863 34.8C35.0063 34.8 35.6063 35.0533 36.0863 35.56L35.6063 36.36L35.5663 36.52L35.4463 36.44C35.4196 36.3333 35.3929 36.2533 35.3663 36.2C35.3129 36.12 35.2196 36.04 35.0863 35.96C34.8463 35.8 34.5529 35.72 34.2063 35.72C33.8596 35.72 33.5263 35.8133 33.2063 36C32.8863 36.16 32.6329 36.4267 32.4463 36.8C32.2329 37.1733 32.1263 37.6267 32.1263 38.16V41.76H31.0463V34.96H32.1663L32.1263 36.2C32.3129 35.7733 32.6063 35.4267 33.0063 35.16C33.4063 34.92 33.8329 34.8 34.2863 34.8ZM39.6094 29V5.4H42.0094V29H39.6094ZM43.2094 29V5.4H45.6094V29H43.2094ZM46.8094 29V5.4H51.6094V29H46.8094ZM49.0894 34.96C49.0094 35.36 48.916 35.76 48.8094 36.16C48.676 36.56 48.5027 37.0933 48.2894 37.76L46.5694 42.52C46.356 43.16 46.0627 43.6267 45.6894 43.92C45.316 44.2133 44.876 44.36 44.3694 44.36C43.7294 44.36 43.2094 44.16 42.8094 43.76L43.2894 43.04L43.3694 42.92L43.4494 42.96C43.476 43.0667 43.516 43.1467 43.5694 43.2C43.6227 43.28 43.716 43.3467 43.8494 43.4C44.036 43.4533 44.236 43.48 44.4494 43.48C44.796 43.48 45.0894 43.3467 45.3294 43.08C45.5427 42.8133 45.756 42.3867 45.9694 41.8L43.1694 34.96H44.2894L46.4094 40.4L47.2894 37.68C47.5027 36.9867 47.6627 36.4667 47.7694 36.12C47.876 35.7467 47.956 35.36 48.0094 34.96H49.0894ZM52.8125 29V5.4H55.2125V29H52.8125ZM60.0125 29V5.4H61.2125V29H60.0125ZM62.4125 29V5.4H63.6125V29H62.4125ZM56.7725 34.96H57.8125V36.16C58.0792 35.76 58.4125 35.4267 58.8125 35.16C59.2125 34.92 59.6392 34.8 60.0925 34.8C60.7058 34.8 61.1992 35.0267 61.5725 35.48C61.9192 35.96 62.0925 36.68 62.0925 37.64V41.76H61.0525V37.68C61.0525 36.9867 60.9458 36.4933 60.7325 36.2C60.4925 35.88 60.1858 35.72 59.8125 35.72C59.4925 35.72 59.1858 35.8133 58.8925 36C58.5725 36.1867 58.3058 36.44 58.0925 36.76C57.9058 37.08 57.8125 37.44 57.8125 37.84V41.76H56.7725V34.96ZM66.0156 29V5.4H67.2156V29H66.0156ZM69.6156 29V5.4H70.8156V29H69.6156ZM72.0156 29V5.4H74.4156V29H72.0156ZM72.5356 34.8C73.4956 34.8 74.229 35.0533 74.7356 35.56C75.2423 36.0667 75.4956 36.9333 75.4956 38.16V41.76H74.3356V40.72C73.9356 41.52 73.1623 41.92 72.0156 41.92C71.269 41.92 70.6823 41.7467 70.2556 41.4C69.829 41.0533 69.6156 40.6 69.6156 40.04C69.6156 39.56 69.7756 39.1467 70.0956 38.8C70.389 38.4533 70.8023 38.1733 71.3356 37.96C71.8423 37.7733 72.4156 37.68 73.0556 37.68C73.6156 37.68 74.1223 37.7067 74.5756 37.76C74.5223 37.0133 74.3223 36.48 73.9756 36.16C73.629 35.84 73.1223 35.68 72.4556 35.68C72.109 35.68 71.789 35.7467 71.4956 35.88C71.1756 36.0133 70.8823 36.2 70.6156 36.44L70.0956 35.76C70.7356 35.12 71.549 34.8 72.5356 34.8ZM72.1356 41.12C72.8823 41.12 73.469 40.8933 73.8956 40.44C74.3223 40.0133 74.549 39.4 74.5756 38.6C74.1223 38.52 73.6423 38.48 73.1356 38.48C72.389 38.48 71.789 38.6133 71.3356 38.88C70.909 39.12 70.6956 39.4933 70.6956 40C70.6956 40.7467 71.1756 41.12 72.1356 41.12ZM79.2188 29V5.4H81.6188V29H79.2188ZM82.8188 29V5.4H85.2188V29H82.8188ZM87.6188 29V5.4H90.0188V29H87.6188ZM92.4219 29V5.4H93.6219V29H92.4219ZM97.2219 29V5.4H100.822V29H97.2219ZM102.022 29V5.4H104.422V29H102.022ZM99.0219 41.92C97.9552 41.92 97.1419 41.5067 96.5819 40.68C95.9952 39.8533 95.7019 38.68 95.7019 37.16C95.7019 35.6933 95.9952 34.5333 96.5819 33.68C97.1685 32.8533 97.9819 32.44 99.0219 32.44C100.062 32.44 100.875 32.8533 101.462 33.68C102.049 34.5333 102.342 35.6933 102.342 37.16C102.342 38.68 102.049 39.8533 101.462 40.68C100.902 41.5067 100.089 41.92 99.0219 41.92ZM99.0219 41C99.7419 41 100.289 40.68 100.662 40.04C101.062 39.3733 101.262 38.4133 101.262 37.16C101.262 35.9867 101.062 35.0533 100.662 34.36C100.262 33.6933 99.7152 33.36 99.0219 33.36C98.3285 33.36 97.7819 33.6933 97.3819 34.36C96.9819 35.0533 96.7819 35.9867 96.7819 37.16C96.7819 38.4133 96.9685 39.3733 97.3419 40.04C97.7419 40.68 98.3019 41 99.0219 41ZM105.625 29V5.4H110.425V29H105.625ZM111.625 29V5.4H112.825V29H111.625ZM115.225 29V5.4H116.425V29H115.225ZM115.265 34.96C115.105 35.76 114.772 36.7467 114.265 37.92L112.625 41.76H111.785L109.105 34.96H110.185L112.265 40.28L113.385 37.76C113.838 36.7467 114.132 35.8133 114.265 34.96H115.265ZM118.828 29V5.4H120.028V29H118.828ZM121.228 29V5.4H123.628V29H121.228ZM126.028 29V5.4H127.228V29H126.028ZM125.748 41.92C124.735 41.92 123.935 41.6133 123.348 41C122.735 40.3867 122.428 39.52 122.428 38.4C122.428 37.6533 122.575 37 122.868 36.44C123.135 35.9067 123.508 35.5067 123.988 35.24C124.441 34.9467 124.961 34.8 125.548 34.8C126.375 34.8 127.041 35.0667 127.548 35.6C128.055 36.16 128.308 36.9733 128.308 38.04C128.308 38.1467 128.308 38.3067 128.308 38.52H123.468C123.495 39.3467 123.721 39.9733 124.148 40.4C124.575 40.8267 125.121 41.04 125.788 41.04C126.508 41.04 127.095 40.7867 127.548 40.28L128.148 40.88C127.561 41.5733 126.761 41.92 125.748 41.92ZM127.228 37.68C127.228 37.04 127.068 36.5333 126.748 36.16C126.428 35.7867 126.001 35.6 125.468 35.6C124.988 35.6 124.561 35.7733 124.188 36.12C123.815 36.4667 123.588 36.9867 123.508 37.68H127.228ZM132.031 29V5.4H133.231V29H132.031ZM138.031 29V5.4H139.231V29H138.031ZM140.431 29V5.4H142.831V29H140.431ZM139.151 41.92C138.485 41.92 137.898 41.7733 137.391 41.48C136.885 41.16 136.485 40.7333 136.191 40.2C135.898 39.6667 135.751 39.0533 135.751 38.36C135.751 37.6933 135.898 37.0933 136.191 36.56C136.485 36.0267 136.885 35.6 137.391 35.28C137.898 34.9867 138.485 34.84 139.151 34.84C139.685 34.84 140.178 34.9467 140.631 35.16C141.058 35.3733 141.418 35.68 141.711 36.08L141.031 36.76L140.951 36.84L140.871 36.76C140.871 36.68 140.845 36.6 140.791 36.52C140.765 36.4667 140.698 36.3867 140.591 36.28C140.378 36.0933 140.151 35.96 139.911 35.88C139.645 35.7733 139.351 35.72 139.031 35.72C138.631 35.72 138.271 35.8267 137.951 36.04C137.605 36.2533 137.338 36.56 137.151 36.96C136.938 37.3333 136.831 37.7733 136.831 38.28C136.831 38.7867 136.938 39.2533 137.151 39.68C137.365 40.08 137.645 40.3867 137.991 40.6C138.365 40.84 138.765 40.96 139.191 40.96C139.885 40.96 140.485 40.68 140.991 40.12L141.591 40.84C140.925 41.56 140.111 41.92 139.151 41.92ZM145.234 29V5.4H146.434V29H145.234ZM148.834 29V5.4H151.234V29H148.834ZM156.034 29V5.4H157.234V29H156.034ZM149.194 31.88H150.394V31.96C150.314 32.04 150.274 32.1067 150.274 32.16C150.248 32.24 150.234 32.36 150.234 32.52V36.16C150.501 35.76 150.834 35.4267 151.234 35.16C151.634 34.92 152.048 34.8 152.474 34.8C153.114 34.8 153.621 35.0267 153.994 35.48C154.368 35.9333 154.554 36.6533 154.554 37.64V41.76H153.514V37.68C153.514 36.9867 153.394 36.4933 153.154 36.2C152.914 35.88 152.608 35.72 152.234 35.72C151.914 35.72 151.608 35.8133 151.314 36C150.994 36.16 150.741 36.4133 150.554 36.76C150.341 37.08 150.234 37.44 150.234 37.84V41.76H149.194V31.88ZM158.438 29V5.4H160.838V29H158.438ZM165.638 29V5.4H166.838V29H165.638ZM169.238 29V5.4H170.438V29H169.238ZM164.278 38.36L163.398 39.2V41.76H162.318V31.88H163.518V31.96C163.464 32.04 163.424 32.1067 163.398 32.16C163.398 32.24 163.398 32.36 163.398 32.52V38.08L166.798 34.92C167.038 34.9733 167.304 35 167.598 35H167.958L165.118 37.72L168.438 41.76L167.078 41.8L164.278 38.36ZM171.641 29V5.4H172.841V29H171.641ZM176.441 29V5.4H181.241V29H176.441ZM182.441 29V5.4H183.641V29H182.441ZM178.241 41.88C177.627 41.88 177.081 41.7333 176.601 41.44C176.147 41.1467 175.787 40.7333 175.521 40.2C175.227 39.6667 175.081 39.0533 175.081 38.36C175.081 37.6667 175.227 37.0533 175.521 36.52C175.787 35.9867 176.147 35.5733 176.601 35.28C177.081 34.96 177.627 34.8 178.241 34.8C178.854 34.8 179.387 34.96 179.841 35.28C180.321 35.5733 180.694 35.9867 180.961 36.52C181.227 37.0533 181.361 37.6667 181.361 38.36C181.361 39.0533 181.227 39.6667 180.961 40.2C180.694 40.7333 180.321 41.1467 179.841 41.44C179.387 41.7333 178.854 41.88 178.241 41.88ZM178.241 41C178.614 41 178.961 40.88 179.281 40.64C179.574 40.4267 179.814 40.12 180.001 39.72C180.161 39.2933 180.241 38.8267 180.241 38.32C180.241 37.5467 180.054 36.92 179.681 36.44C179.307 35.96 178.827 35.72 178.241 35.72C177.654 35.72 177.174 35.96 176.801 36.44C176.427 36.92 176.241 37.5467 176.241 38.32C176.241 38.8267 176.321 39.2933 176.481 39.72C176.667 40.12 176.907 40.4267 177.201 40.64C177.494 40.88 177.841 41 178.241 41ZM191.364 0.88C191.124 1.81333 190.817 2.82667 190.444 3.92C190.07 5.01333 189.657 6.10667 189.204 7.2C188.777 8.26667 188.35 9.28 187.924 10.24H185.324C185.51 9.49333 185.697 8.69333 185.884 7.84C186.097 6.98666 186.284 6.13333 186.444 5.28C186.63 4.4 186.79 3.54667 186.924 2.72C187.084 1.89333 187.217 1.13333 187.324 0.439998H191.084L191.364 0.88ZM191.836 29V5.4H193.036V29H191.836ZM194.236 29V5.4H199.036V29H194.236ZM201.436 29V5.4H202.636V29H201.436ZM198.436 41.92C197.289 41.92 196.329 41.56 195.556 40.84L196.156 39.84L196.236 39.68L196.356 39.76C196.356 39.7867 196.356 39.8267 196.356 39.88C196.383 39.96 196.409 40.0267 196.436 40.08C196.489 40.16 196.543 40.24 196.596 40.32C196.836 40.5333 197.103 40.7067 197.396 40.84C197.689 40.9467 198.049 41 198.476 41C199.009 41 199.436 40.9067 199.756 40.72C200.049 40.5333 200.196 40.2667 200.196 39.92C200.196 39.6267 200.076 39.3867 199.836 39.2C199.596 39.0133 199.143 38.8267 198.476 38.64C196.769 38.1333 195.916 37.4267 195.916 36.52C195.916 35.9867 196.143 35.5733 196.596 35.28C197.023 34.96 197.636 34.8 198.436 34.8C199.049 34.8 199.569 34.8933 199.996 35.08C200.423 35.24 200.809 35.5067 201.156 35.88L200.516 36.6L200.436 36.72L200.356 36.64C200.356 36.5333 200.329 36.4533 200.276 36.4C200.249 36.32 200.183 36.24 200.076 36.16C199.836 35.9733 199.583 35.84 199.316 35.76C199.023 35.6533 198.743 35.6 198.476 35.6C198.049 35.6 197.689 35.68 197.396 35.84C197.129 35.9733 196.996 36.1733 196.996 36.44C196.996 36.7067 197.143 36.9333 197.436 37.12C197.703 37.3333 198.196 37.5467 198.916 37.76C199.769 38.0267 200.369 38.3067 200.716 38.6C201.089 38.8933 201.276 39.2933 201.276 39.8C201.276 40.4133 201.036 40.92 200.556 41.32C200.076 41.72 199.369 41.92 198.436 41.92ZM205.039 29V5.4H207.439V29H205.039ZM208.639 29V5.4H211.039V29H208.639ZM213.439 29V5.4H215.839V29H213.439ZM218.242 29V5.4H219.442V29H218.242ZM220.642 29V5.4H221.842V29H220.642ZM224.242 29V5.4H229.042V29H224.242ZM222.002 34.96H223.082V36.32C223.242 35.8133 223.509 35.44 223.882 35.2C224.256 34.9333 224.682 34.8 225.162 34.8C225.669 34.8 226.149 34.9333 226.602 35.2C227.029 35.4667 227.362 35.8667 227.602 36.4C227.869 36.9067 228.002 37.5467 228.002 38.32C228.002 39.0667 227.869 39.72 227.602 40.28C227.336 40.84 226.989 41.2533 226.562 41.52C226.109 41.7867 225.629 41.92 225.122 41.92C224.722 41.92 224.349 41.8267 224.002 41.64C223.629 41.4533 223.336 41.2 223.122 40.88V44.24H222.002V34.96ZM224.962 41C225.496 41 225.949 40.7867 226.322 40.36C226.696 39.96 226.882 39.2933 226.882 38.36C226.882 37.5067 226.722 36.8533 226.402 36.4C226.082 35.9467 225.616 35.72 225.002 35.72C224.442 35.72 223.989 35.96 223.642 36.44C223.269 36.92 223.082 37.64 223.082 38.6C223.109 39.3733 223.282 39.96 223.602 40.36C223.949 40.7867 224.402 41 224.962 41ZM231.445 29V5.4H232.645V29H231.445ZM236.245 29V5.4H241.045V29H236.245ZM242.245 29V5.4H243.445V29H242.245ZM238.045 41.88C237.432 41.88 236.885 41.7333 236.405 41.44C235.952 41.1467 235.592 40.7333 235.325 40.2C235.032 39.6667 234.885 39.0533 234.885 38.36C234.885 37.6667 235.032 37.0533 235.325 36.52C235.592 35.9867 235.952 35.5733 236.405 35.28C236.885 34.96 237.432 34.8 238.045 34.8C238.659 34.8 239.192 34.96 239.645 35.28C240.125 35.5733 240.499 35.9867 240.765 36.52C241.032 37.0533 241.165 37.6667 241.165 38.36C241.165 39.0533 241.032 39.6667 240.765 40.2C240.499 40.7333 240.125 41.1467 239.645 41.44C239.192 41.7333 238.659 41.88 238.045 41.88ZM238.045 41C238.419 41 238.765 40.88 239.085 40.64C239.379 40.4267 239.619 40.12 239.805 39.72C239.965 39.2933 240.045 38.8267 240.045 38.32C240.045 37.5467 239.859 36.92 239.485 36.44C239.112 35.96 238.632 35.72 238.045 35.72C237.459 35.72 236.979 35.96 236.605 36.44C236.232 36.92 236.045 37.5467 236.045 38.32C236.045 38.8267 236.125 39.2933 236.285 39.72C236.472 40.12 236.712 40.4267 237.005 40.64C237.299 40.88 237.645 41 238.045 41ZM244.648 29V5.4H245.848V29H244.648ZM248.248 29V5.4H249.448V29H248.248ZM251.848 29V5.4H256.648V29H251.848ZM252.528 34.8C253.248 34.8 253.848 35.0533 254.328 35.56L253.848 36.36L253.808 36.52L253.688 36.44C253.662 36.3333 253.635 36.2533 253.608 36.2C253.555 36.12 253.462 36.04 253.328 35.96C253.088 35.8 252.795 35.72 252.448 35.72C252.102 35.72 251.768 35.8133 251.448 36C251.128 36.16 250.875 36.4267 250.688 36.8C250.475 37.1733 250.368 37.6267 250.368 38.16V41.76H249.288V34.96H250.408L250.368 36.2C250.555 35.7733 250.848 35.4267 251.248 35.16C251.648 34.92 252.075 34.8 252.528 34.8ZM257.852 29V5.4H259.052V29H257.852ZM261.452 29V5.4H266.252V29H261.452ZM267.452 29V5.4H268.652V29H267.452ZM267.332 41.12C266.692 41.6267 265.972 41.88 265.172 41.88C264.425 41.88 263.892 41.6533 263.572 41.2C263.252 40.72 263.092 39.9733 263.092 38.96C263.092 38.7733 263.105 38.48 263.132 38.08L263.292 35.84H261.772V34.96H263.332L263.452 33.16L264.612 32.96H264.772V33.04C264.718 33.12 264.678 33.2 264.652 33.28C264.598 33.36 264.572 33.4667 264.572 33.6L264.412 34.96H266.652V35.84H264.332L264.212 38.16C264.185 38.56 264.172 38.8133 264.172 38.92C264.172 39.72 264.265 40.2667 264.452 40.56C264.638 40.8267 264.932 40.96 265.332 40.96C265.625 40.96 265.905 40.9067 266.172 40.8C266.412 40.6933 266.692 40.52 267.012 40.28L267.332 41.12ZM271.055 29V5.4H272.255V29H271.055ZM273.455 29V5.4H275.855V29H273.455ZM280.655 29V5.4H281.855V29H280.655ZM276.335 35.8H274.855V34.96H276.335V34.4C276.335 33.52 276.561 32.8667 277.015 32.44C277.468 32.0133 278.081 31.8 278.855 31.8C279.281 31.8 279.681 31.8667 280.055 32C280.428 32.16 280.735 32.4 280.975 32.72L280.415 33.52L280.295 33.64L280.215 33.56C280.215 33.5333 280.215 33.4933 280.215 33.44C280.188 33.3867 280.161 33.32 280.135 33.24C280.081 33.16 280.015 33.0933 279.935 33.04C279.801 32.9067 279.655 32.8 279.495 32.72C279.335 32.6667 279.121 32.64 278.855 32.64C278.401 32.64 278.041 32.7867 277.775 33.08C277.508 33.3467 277.375 33.7867 277.375 34.4V34.96H279.615V35.8H277.375V41.76H276.335V35.8ZM284.258 29V5.4H285.458V29H284.258ZM289.058 29V5.4H293.858V29H289.058ZM295.058 29V5.4H296.258V29H295.058ZM290.858 41.88C290.244 41.88 289.698 41.7333 289.218 41.44C288.764 41.1467 288.404 40.7333 288.138 40.2C287.844 39.6667 287.698 39.0533 287.698 38.36C287.698 37.6667 287.844 37.0533 288.138 36.52C288.404 35.9867 288.764 35.5733 289.218 35.28C289.698 34.96 290.244 34.8 290.858 34.8C291.471 34.8 292.004 34.96 292.458 35.28C292.938 35.5733 293.311 35.9867 293.578 36.52C293.844 37.0533 293.978 37.6667 293.978 38.36C293.978 39.0533 293.844 39.6667 293.578 40.2C293.311 40.7333 292.938 41.1467 292.458 41.44C292.004 41.7333 291.471 41.88 290.858 41.88ZM290.858 41C291.231 41 291.578 40.88 291.898 40.64C292.191 40.4267 292.431 40.12 292.618 39.72C292.778 39.2933 292.858 38.8267 292.858 38.32C292.858 37.5467 292.671 36.92 292.298 36.44C291.924 35.96 291.444 35.72 290.858 35.72C290.271 35.72 289.791 35.96 289.418 36.44C289.044 36.92 288.858 37.5467 288.858 38.32C288.858 38.8267 288.938 39.2933 289.098 39.72C289.284 40.12 289.524 40.4267 289.818 40.64C290.111 40.88 290.458 41 290.858 41ZM297.461 29V5.4H299.861V29H297.461ZM302.261 29V5.4H303.461V29H302.261ZM304.661 29V5.4H305.861V29H304.661ZM301.501 40.88H303.541V32.72H301.621V31.88H304.621V40.88H306.621V41.76H301.501V40.88ZM310.664 29V5.4H311.864V29H310.664ZM316.664 29V5.4H319.064V29H316.664ZM320.264 29V5.4H321.464V29H320.264ZM315.024 40.88H316.784V35.84H315.104V34.96H317.824V40.88H319.424V41.76H315.024V40.88ZM317.264 33.52C317.051 33.52 316.864 33.4533 316.704 33.32C316.571 33.16 316.504 32.9733 316.504 32.76C316.504 32.5467 316.571 32.3733 316.704 32.24C316.837 32.08 317.024 32 317.264 32C317.451 32 317.624 32.08 317.784 32.24C317.944 32.4 318.024 32.5733 318.024 32.76C318.024 32.9733 317.944 33.16 317.784 33.32C317.624 33.4533 317.451 33.52 317.264 33.52ZM323.867 29V5.4H325.067V29H323.867ZM328.667 29V5.4H333.467V29H328.667ZM334.667 29V5.4H335.867V29H334.667ZM330.467 41.88C329.854 41.88 329.307 41.7333 328.827 41.44C328.374 41.1467 328.014 40.7333 327.747 40.2C327.454 39.6667 327.307 39.0533 327.307 38.36C327.307 37.6667 327.454 37.0533 327.747 36.52C328.014 35.9867 328.374 35.5733 328.827 35.28C329.307 34.96 329.854 34.8 330.467 34.8C331.081 34.8 331.614 34.96 332.067 35.28C332.547 35.5733 332.921 35.9867 333.187 36.52C333.454 37.0533 333.587 37.6667 333.587 38.36C333.587 39.0533 333.454 39.6667 333.187 40.2C332.921 40.7333 332.547 41.1467 332.067 41.44C331.614 41.7333 331.081 41.88 330.467 41.88ZM330.467 41C330.841 41 331.187 40.88 331.507 40.64C331.801 40.4267 332.041 40.12 332.227 39.72C332.387 39.2933 332.467 38.8267 332.467 38.32C332.467 37.5467 332.281 36.92 331.907 36.44C331.534 35.96 331.054 35.72 330.467 35.72C329.881 35.72 329.401 35.96 329.027 36.44C328.654 36.92 328.467 37.5467 328.467 38.32C328.467 38.8267 328.547 39.2933 328.707 39.72C328.894 40.12 329.134 40.4267 329.427 40.64C329.721 40.88 330.067 41 330.467 41ZM337.07 29V5.4H339.47V29H337.07ZM340.67 29V5.4H343.07V29H340.67ZM345.47 29V5.4H347.87V29H345.47Z" fill="black"/>
</svg>
